<svg width="17" height="16" viewBox="0 0 17 16" fill="none" xmlns="http://www.w3.org/2000/svg">
<g clip-path="url(#clip0_19_1934)">
<path d="M11.9541 0H4.6162C2.22802 0 0.285156 1.94287 0.285156 4.33105V11.669C0.285156 14.0571 2.22802 16 4.6162 16H11.9542C14.3423 16 16.2851 14.0571 16.2851 11.669V4.33105C16.2851 1.94287 14.3423 0 11.9541 0V0ZM8.28514 12.3749C5.87279 12.3749 3.91027 10.4123 3.91027 7.99998C3.91027 5.58764 5.87279 3.62512 8.28514 3.62512C10.6975 3.62512 12.66 5.58764 12.66 7.99998C12.66 10.4123 10.6975 12.3749 8.28514 12.3749ZM12.7646 4.65685C12.0517 4.65685 11.4719 4.07702 11.4719 3.36413C11.4719 2.65124 12.0517 2.07129 12.7646 2.07129C13.4775 2.07129 14.0575 2.65124 14.0575 3.36413C14.0575 4.07702 13.4775 4.65685 12.7646 4.65685Z" fill="white" fill-opacity="0.4"/>
<path d="M8.28454 4.56348C6.38952 4.56348 4.84766 6.10522 4.84766 8.00036C4.84766 9.89538 6.38952 11.4372 8.28454 11.4372C10.1797 11.4372 11.7214 9.89538 11.7214 8.00036C11.7214 6.10522 10.1797 4.56348 8.28454 4.56348Z" fill="white" fill-opacity="0.4"/>
<path d="M12.7649 3.00977C12.5693 3.00977 12.4102 3.16894 12.4102 3.3645C12.4102 3.56006 12.5693 3.71924 12.7649 3.71924C12.9606 3.71924 13.1198 3.56018 13.1198 3.3645C13.1198 3.16882 12.9606 3.00977 12.7649 3.00977Z" fill="white" fill-opacity="0.4"/>
</g>
<defs>
<clipPath id="clip0_19_1934">
<rect width="16" height="16" fill="white" transform="translate(0.285156)"/>
</clipPath>
</defs>
</svg>
