<svg width="43" height="40" viewBox="0 0 43 40" fill="none" xmlns="http://www.w3.org/2000/svg">
<rect width="42.2857" height="40" rx="2" fill="white" fill-opacity="0.1"/>
<path d="M12.323 19.6719L16.5364 21.2523L18.1672 26.5232C18.2716 26.8608 18.6823 26.9856 18.955 26.7616L21.3036 24.8374C21.5498 24.6358 21.9004 24.6258 22.1577 24.8134L26.3938 27.9042C26.6855 28.1173 27.0986 27.9567 27.1718 27.6025L30.2749 12.6015C30.3548 12.2146 29.9765 11.8919 29.61 12.0343L12.318 18.7382C11.8913 18.9036 11.895 19.5108 12.323 19.6719ZM17.9044 20.4111L26.139 15.3141C26.2869 15.2228 26.4392 15.4239 26.3121 15.5424L19.5162 21.8909C19.2774 22.1144 19.1233 22.4134 19.0796 22.738L18.8481 24.4621C18.8175 24.6923 18.4957 24.7152 18.4325 24.4924L17.5422 21.3485C17.4402 20.9899 17.5888 20.6068 17.9044 20.4111Z" fill="white" fill-opacity="0.4"/>
</svg>
