<svg width="18" height="16" viewBox="0 0 18 16" fill="none" xmlns="http://www.w3.org/2000/svg">
<path d="M18 1.89305C17.3375 2.21429 16.6266 2.43216 15.8797 2.52942C16.6424 2.02968 17.2261 1.23702 17.5028 0.295398C16.7875 0.758193 15.9978 1.09424 15.1565 1.27641C14.4827 0.489895 13.5244 0 12.4615 0C10.4222 0 8.7688 1.80937 8.7688 4.03969C8.7688 4.35601 8.80142 4.66496 8.86442 4.96039C5.796 4.79174 3.07515 3.18301 1.25412 0.738495C0.935795 1.33425 0.754706 2.02842 0.754706 2.76943C0.754706 4.1714 1.40709 5.40841 2.39691 6.13213C1.79177 6.10999 1.22262 5.92782 0.724353 5.62502V5.67549C0.724353 7.63256 1.99762 9.2659 3.68591 9.63764C3.37659 9.72873 3.05041 9.7792 2.71297 9.7792C2.47453 9.7792 2.24394 9.75335 2.01785 9.70411C2.488 11.3104 3.85127 12.4785 5.46647 12.5105C4.20333 13.5937 2.61062 14.2374 0.880707 14.2374C0.582648 14.2374 0.289059 14.2177 0 14.182C1.63432 15.3304 3.57459 16 5.65995 16C12.4525 16 16.1655 9.84321 16.1655 4.50374L16.1531 3.98063C16.8786 3.41439 17.5062 2.70297 18 1.89305Z" fill="white" fill-opacity="0.4"/>
</svg>
